<svg width="20" height="20" viewBox="0 0 20 20" fill="none" xmlns="http://www.w3.org/2000/svg">
<path opacity="0.3" fill-rule="evenodd" clip-rule="evenodd" d="M20 7.28754C20 4.73084 17.9071 2.65084 15.3346 2.65084C15.2228 2.65084 15.11 2.65502 14.9966 2.66343C13.8896 1.0099 12.0141 0 10 0C7.98594 0 6.1105 1.0101 5.00349 2.66343C4.89009 2.65502 4.77724 2.65084 4.66546 2.65084C2.09289 2.65084 0 4.73084 0 7.28754C0 9.62 1.74225 11.5547 4.00121 11.8762V18.2841C4.00121 19.2303 4.77595 20 5.72828 20H14.2717C15.2241 20 15.9988 19.2302 15.9988 18.2841V11.8762C18.2578 11.5547 20 9.61993 20 7.28754ZM5.73158 18.6667C5.5158 18.6667 5.33333 18.4887 5.33333 18.2781V11.9908C5.98367 11.901 6.6011 11.6788 7.15803 11.3333C8.01231 11.7841 8.98389 12.0371 9.99997 12.0371C11.016 12.0371 11.9876 11.7841 12.8418 11.3334C13.3989 11.6788 14.0164 11.901 14.6667 11.9908V18.2781C14.6667 18.4887 14.4843 18.6667 14.2684 18.6667H5.73158ZM14.0514 10.4117C14.4529 10.5794 14.8849 10.6667 15.3318 10.6667C17.1707 10.6667 18.6669 9.17098 18.6667 7.33254C18.6667 5.49404 17.1706 3.99821 15.3317 3.99821C15.1458 3.99821 14.9545 4.01486 14.7629 4.04763C14.4861 4.09481 14.2093 3.96328 14.0719 3.71862C13.2449 2.24737 11.6847 1.33333 10 1.33333C8.31532 1.33333 6.75509 2.24731 5.92826 3.71856C5.79074 3.96321 5.5138 4.09475 5.23727 4.04763C5.04568 4.01486 4.8543 3.99821 4.66841 3.99821C2.82948 3.99821 1.33333 5.49404 1.33333 7.33254C1.33333 9.17098 2.82941 10.6667 4.66841 10.6667C5.11526 10.6667 5.54727 10.5794 5.94872 10.4117C5.14073 9.67159 4.52987 8.70942 4.22326 7.60373C4.12537 7.25063 4.3324 6.88493 4.68576 6.78711C5.03938 6.68929 5.40507 6.89617 5.50296 7.24927C6.06098 9.26142 7.91021 10.6667 10.0001 10.6667C12.0899 10.6667 13.9392 9.26142 14.4972 7.24927C14.5952 6.89624 14.961 6.68929 15.3144 6.78711C15.6677 6.885 15.8748 7.25063 15.7769 7.60373C15.4702 8.70942 14.8594 9.67153 14.0514 10.4117Z" fill="black"/>
</svg>
